<?xml version="1.0" encoding="UTF-8" standalone="no"?>
<svg
   xmlns:dc="http://purl.org/dc/elements/1.1/"
   xmlns:cc="http://creativecommons.org/ns#"
   xmlns:rdf="http://www.w3.org/1999/02/22-rdf-syntax-ns#"
   xmlns:svg="http://www.w3.org/2000/svg"
   xmlns="http://www.w3.org/2000/svg"
   xmlns:sodipodi="http://sodipodi.sourceforge.net/DTD/sodipodi-0.dtd"
   xmlns:inkscape="http://www.inkscape.org/namespaces/inkscape"
   version="1.0"
   width="2000.000000pt"
   height="2000.000000pt"
   viewBox="0 0 2000.000000 1999.999999"
   preserveAspectRatio="xMidYMid meet"
   id="svg10"
   sodipodi:docname="spy-silhouette.svg"
   inkscape:version="1.0.2 (e86c870879, 2021-01-15)">
  <metadata
     id="metadata16">
    <rdf:RDF>
      <cc:Work
         rdf:about="">
        <dc:format>image/svg+xml</dc:format>
        <dc:type
           rdf:resource="http://purl.org/dc/dcmitype/StillImage" />
        <dc:title></dc:title>
      </cc:Work>
    </rdf:RDF>
  </metadata>
  <defs
     id="defs14" />
  <sodipodi:namedview
     pagecolor="#180b15"
     bordercolor="#000000"
     borderopacity="0.25"
     objecttolerance="10"
     gridtolerance="10"
     guidetolerance="10"
     inkscape:pageopacity="1"
     inkscape:pageshadow="2"
     inkscape:window-width="3830"
     inkscape:window-height="2090"
     id="namedview12"
     showgrid="false"
     inkscape:zoom="0.189"
     inkscape:cx="-3064.6826"
     inkscape:cy="1684.4329"
     inkscape:window-x="3840"
     inkscape:window-y="60"
     inkscape:window-maximized="0"
     inkscape:current-layer="svg10"
     units="mm" />
  <path
     id="path2"
     style="fill:#f0e8d0;stroke:none;stroke-width:0.133333"
     d="M 1050.2676 1647.1992 C 1050.1342 1647.0659 1037.0673 1650.8001 1021.334 1655.4668 C 980.80065 1667.6001 915.60065 1685.3333 887.33398 1692 C 874.13398 1695.0667 849.06576 1699.8674 831.73242 1702.8008 C 798.79909 1708.2674 775.20065 1712.9326 759.33398 1717.1992 C 617.20065 1755.7326 557.19935 1775.0672 520.66602 1793.8672 C 505.19935 1801.8672 501.73398 1805.8661 493.33398 1826.1328 C 485.33398 1845.7328 459.46719 1923.2004 445.86719 1968.4004 C 443.01615 1978.0323 440.32455 1986.5395 438.43555 1992.0898 A 1115.8998 1115.2324 0 0 0 1337.1758 2446.2832 A 1115.8998 1115.2324 0 0 0 2230.4414 1999.4629 C 2228.5583 1994.0111 2225.4742 1984.1888 2222.1328 1972.9336 C 2208.6661 1927.8669 2181.6007 1845.9995 2173.334 1826.1328 C 2164.934 1805.8661 2161.4667 1801.8672 2146 1793.8672 C 2109.4667 1775.0672 2049.4673 1755.7326 1907.334 1717.1992 C 1891.4673 1712.9326 1867.8669 1708.2674 1834.9336 1702.8008 C 1787.0669 1694.8008 1731.7328 1681.2 1654.1328 1658 C 1637.9995 1653.3333 1624.6665 1649.4658 1624.5332 1649.7324 C 1624.2665 1649.8658 1626.3997 1655.4667 1629.0664 1662 C 1635.4664 1677.7333 1635.3329 1683.2007 1627.5996 1713.334 C 1611.0663 1777.2007 1578.8005 1859.066 1545.8672 1920.666 L 1538.4004 1934.666 L 1531.5996 1931.1992 C 1519.9996 1925.3326 1502.9324 1913.5991 1491.7324 1903.7324 C 1482.7991 1895.8658 1480.534 1894.5336 1477.334 1894.9336 C 1474.134 1895.4669 1473.7336 1895.1991 1474.9336 1893.7324 C 1476.1336 1892.2658 1475.7331 1892.1326 1473.0664 1893.1992 C 1471.1997 1893.8659 1469.2008 1894.1324 1468.8008 1893.7324 C 1468.4008 1893.1991 1468 1893.6004 1468 1894.4004 C 1468 1896.0004 1484.8004 1911.2005 1496.4004 1919.8672 C 1503.8671 1925.6005 1503.8661 1925.5991 1502.1328 1929.7324 C 1501.1995 1932.1324 1488.2673 1964.8009 1473.334 2002.2676 C 1454.6673 2049.3342 1445.7341 2070.2668 1444.8008 2069.4668 C 1443.8674 2068.6668 1433.1997 2074.266 1415.0664 2084.666 C 1358.7997 2117.466 1261.6008 2171.5999 1260.8008 2170.5332 C 1259.8674 2169.3332 1252.0004 2148.7999 1252.4004 2148.5332 C 1252.5337 2148.2665 1263.6003 2142.1341 1276.9336 2134.8008 C 1348.9336 2095.2008 1433.334 2046.6669 1433.334 2044.9336 C 1433.334 2043.6003 1414.1329 2006.9329 1411.5996 2003.5996 C 1409.9996 2001.3329 1407.8673 2002.2674 1379.334 2018.8008 C 1342.534 2039.8674 1301.8669 2064.9339 1266.9336 2087.8672 C 1242.4003 2104.0005 1241.3332 2104.9324 1240.5332 2109.7324 C 1239.9999 2112.3991 1239.3341 2114.666 1238.8008 2114.666 C 1238.1341 2114.666 1174.2673 1955.466 1171.334 1946.666 C 1170.934 1945.3327 1173.4664 1942.7997 1179.0664 1939.0664 C 1195.7331 1927.8664 1214.2674 1907.2004 1222.8008 1890.4004 C 1227.2008 1881.6004 1227.4665 1880.8005 1224.5332 1881.8672 C 1223.4665 1882.2672 1222.8007 1882.1335 1223.334 1881.4668 C 1223.734 1880.8001 1219.866 1880.2671 1214.666 1880.4004 L 1205.1992 1880.4004 L 1190.2676 1895.334 C 1182.0009 1903.4673 1171.466 1912.8009 1166.666 1916.2676 C 1156.5327 1923.3342 1136.1335 1935.3332 1135.4668 1934.5332 C 1135.2001 1934.2665 1130.4003 1925.3327 1124.9336 1914.666 C 1102.2669 1871.1993 1077.334 1811.8667 1061.334 1764 C 1051.2007 1733.6 1039.8663 1690.534 1039.5996 1681.334 C 1039.4663 1677.0673 1041.0664 1671.2001 1045.0664 1661.4668 C 1048.1331 1653.7335 1050.4009 1647.3326 1050.2676 1647.1992 z M 1410.2676 2158.666 C 1410.5342 2158.666 1409.4661 2161.4669 1408.1328 2164.9336 C 1406.7995 2168.5336 1403.4674 2176.6673 1400.8008 2183.334 L 1395.8672 2195.334 L 1379.5996 2204.5332 C 1370.6663 2209.5999 1347.8664 2222.6663 1329.0664 2233.5996 C 1310.2664 2244.3996 1294.5342 2253.334 1294.2676 2253.334 C 1292.8009 2253.334 1285.0661 2231.7327 1286.1328 2230.666 C 1287.1995 2229.7327 1409.4676 2158.7993 1410.2676 2158.666 z M 1369.0664 2262 C 1369.1997 2262.1333 1366.3993 2270.0001 1362.666 2279.4668 L 1355.7324 2296.666 L 1338.2676 2306.666 C 1328.5342 2312.1327 1320.2672 2316.7997 1319.8672 2317.0664 C 1319.4672 2317.1997 1317.0665 2312.1339 1314.5332 2305.8672 C 1312.1332 2299.4672 1310.6673 2294.001 1311.334 2293.7344 C 1312.134 2293.4677 1325.3327 2286.1335 1340.666 2277.4668 C 1356.1327 2268.8001 1368.7997 2261.8667 1369.0664 2262 z "
     transform="scale(0.74999997)" />
  <path
     d="m 850.8,354 c -27.3,7.8 -50.3,28.9 -67.8,62.2 -20,38.1 -34.5,97.4 -40.1,164.8 -0.6,7.4 -1.4,14.2 -1.7,15 -0.4,0.8 -1.1,21.7 -1.7,46.4 l -1,44.9 -19,4.3 c -78.7,17.6 -132.9,36.5 -164.8,57.4 -8.3,5.5 -10.7,8.8 -10.7,14.7 0,5.2 3,9.6 8.3,12.2 16.4,7.9 81.7,17.2 163.5,23.2 12.4,0.9 16.2,1.5 16.2,2.6 0,1.8 4.8,44.1 5.4,47.5 l 0.5,2.6 -4.6,-2.6 c -3.7,-2 -5.9,-2.5 -11.7,-2.6 -8.2,0 -11.7,1.5 -16.5,6.9 -7.4,8.5 -8.3,16.7 -4.7,43.5 5,36.5 10.2,56.6 19.3,74.2 6.2,12 15,21.6 24.1,26 6.1,3 7.5,3.3 15.9,3.3 h 9.3 l 3.6,11 c 13.8,41.4 34,86.3 51.6,114.5 7.3,11.8 6.5,7.8 8.8,40.9 l 1,14.5 7.3,15 c 34,70.1 79.4,114.1 125.6,121.9 l 7.2,1.2 -6.1,4.4 c -6.8,5 -19.3,17.8 -26.6,27.2 l -4.8,6.2 2.1,5.6 c 2.3,6.1 16.2,38.3 16.8,38.9 0.2,0.3 13.4,-7.2 29.2,-16.6 41.1,-24.2 60.3,-35.2 61.5,-35.2 0.6,0 3.1,1.7 5.6,3.7 2.5,2.1 5.6,4.7 7,5.9 l 2.6,2.1 -7.5,4.3 c -20.8,12 -52.6,30.6 -70.7,41.3 -15.6,9.2 -20.2,12.4 -19.7,13.6 3.3,8.9 9.2,22.1 9.9,22.1 0.5,0 9.1,-5.3 19,-11.8 10,-6.5 27.7,-17.9 39.3,-25.3 20.7,-13 21.3,-13.5 23.4,-18.4 1.2,-2.8 4.6,-10.5 7.5,-17.2 3,-6.7 5.4,-12.6 5.4,-13.1 0,-0.5 -3.8,-5.7 -8.5,-11.5 -8.4,-10.4 -18.5,-20 -25.5,-24.1 l -3.4,-2.1 7.4,-1.2 c 24.9,-4.2 45.7,-16 69.1,-39.3 21.3,-21.2 38.6,-45.9 55.2,-78.9 l 7.7,-15.5 v -35.4 -35.5 l 5.9,-11.1 c 12.2,-22.8 24.9,-52.8 35.6,-83.9 l 6.1,-17.8 9.5,-0.2 c 11.3,-0.3 17.7,-2.9 26.4,-10.9 15.8,-14.4 25.1,-40 32.1,-87.7 2.8,-19.1 3.3,-32.3 1.5,-38.7 -1.4,-5.1 -6.2,-11.9 -10.2,-14.3 -6.4,-3.9 -19.3,-3.4 -25.3,1 l -2.8,2.1 0.6,-3.8 c 3.1,-20.3 5.8,-51.1 5.3,-60.5 l -0.5,-10.5 16.9,-3.8 c 55.8,-12.3 95.5,-28.8 126.3,-52.4 8.8,-6.8 10.7,-13.9 5.5,-20.6 -2.5,-3.2 -13.8,-9 -27.4,-14.1 -22.3,-8.3 -67.7,-17.8 -107.7,-22.5 -9.5,-1.1 -18.9,-2.2 -20.8,-2.4 -1.9,-0.3 -7.3,-0.8 -12,-1.2 -4.7,-0.4 -9.4,-0.8 -10.5,-0.9 -1.1,-0.1 -3.8,-0.3 -6.1,-0.4 l -4.1,-0.1 -0.7,-20.3 c -1.4,-40 -3.6,-67.9 -8.2,-99.7 -13.2,-93 -42.4,-154.3 -84.6,-177.4 -15.2,-8.4 -29.5,-11 -47.1,-8.6 -13.3,1.8 -20.1,4.2 -39.2,13.6 -9.9,4.9 -20.1,9.2 -24.5,10.3 -8.4,2.1 -26,3.8 -26,2.5 0,-1.2 -14.3,-1.1 -15.2,0 -1.1,1.6 -22.2,-1.1 -30.5,-3.9 -4.3,-1.5 -13.2,-5.5 -19.8,-9 -6.6,-3.5 -16,-7.7 -21,-9.4 -16.1,-5.3 -34.5,-6.5 -46.7,-3.1 z m 155.2,969 c 2.1,1.1 4.1,2.4 4.4,2.9 0.4,0.5 -5.6,4.2 -13.1,8.2 -7.6,4 -20.3,10.8 -28.2,15.1 -8,4.3 -14.6,7.6 -14.8,7.4 -0.7,-0.6 10.8,-10.5 21.4,-18.5 8.3,-6.1 24.8,-17 26.1,-17.1 0.1,0 2,0.9 4.2,2 z"
     id="path4"
     style="fill:#f0e8d0;stroke:none;stroke-width:0.1" />
  <path
     d="m 1019,1435.6 c -10.7,6.9 -26.8,17.4 -35.7,23.2 l -16.1,10.7 -6.7,16 c -7.2,17.2 -22.8,62.8 -22.3,64.9 0.2,0.9 4.2,-1.2 11.7,-6.1 18.5,-12.1 53.7,-33.6 76.9,-46.9 12,-6.9 21.6,-12.9 21.5,-13.4 -0.2,-0.6 -4.6,-8 -9.8,-16.6 -5.2,-8.5 -9.5,-16.2 -9.5,-16.9 0,-0.8 2.5,-7.1 5.5,-14.1 3,-7 5.5,-12.9 5.5,-13.1 0,-1 -3.5,1 -21,12.3 z"
     id="path6"
     style="fill:#f0e8d0;stroke:none;stroke-width:0.1" />
  <path
     id="rect841"
     style="fill:#1c0e18;fill-opacity:0.45;stroke-width:17.6862;stroke-linecap:round;stroke-linejoin:round"
     d="M 5.5333332e-4,0 V 1999.9994 H 2000 V 0 Z M 1002.8824,161.86377 a 836.92483,836.42428 0 0 1 836.9253,836.4244 836.92483,836.42428 0 0 1 -836.9253,836.42433 836.92483,836.42428 0 0 1 -836.92385,-836.42433 836.92483,836.42428 0 0 1 836.92385,-836.4243 z" />
</svg>
